<?xml version="1.0" standalone="no"?>
<!DOCTYPE svg PUBLIC "-//W3C//DTD SVG 20010904//EN"
 "http://www.w3.org/TR/2001/REC-SVG-20010904/DTD/svg10.dtd">
<svg version="1.0" xmlns="http://www.w3.org/2000/svg"
 width="996.000000pt" height="1024.000000pt" viewBox="0 0 996.000000 1024.000000"
 preserveAspectRatio="xMidYMid meet">

<g transform="translate(0.000000,1024.000000) scale(0.100000,-0.100000)"
fill="#000000" stroke="none">
<path d="M0 5120 l0 -5120 4980 0 4980 0 0 5120 0 5120 -4980 0 -4980 0 0
-5120z m5150 4105 c7 -8 17 -15 22 -15 21 0 88 -55 83 -69 -3 -8 0 -11 10 -8
20 8 149 -115 200 -189 22 -33 43 -61 47 -64 9 -7 47 -95 66 -155 24 -77 21
-199 -7 -268 -14 -33 -28 -54 -34 -50 -6 3 -7 1 -3 -6 10 -16 -35 -82 -51 -76
-7 2 -12 -1 -10 -8 1 -7 -8 -11 -23 -9 -18 1 -21 0 -11 -7 11 -7 7 -13 -17
-25 -29 -15 -31 -15 -27 2 2 9 11 45 20 80 50 208 37 350 -51 535 -33 69 -47
39 -16 -35 50 -117 52 -315 5 -438 -3 -8 -7 -19 -7 -25 -5 -40 -19 -74 -28
-69 -6 4 -8 2 -4 -4 3 -6 1 -23 -6 -37 -12 -26 -15 -27 -66 -22 -65 7 -126 41
-175 99 -20 24 -42 49 -48 56 -37 44 -49 190 -24 287 16 60 83 215 98 226 4 3
9 14 11 25 2 10 11 47 20 80 19 73 21 175 4 192 -8 8 -8 12 -1 12 6 0 16 -7
23 -15z m-596 -975 c87 -11 168 -30 266 -62 79 -26 164 -98 155 -132 -5 -16
-4 -17 3 -7 8 11 14 5 30 -25 42 -84 49 -190 15 -256 -18 -37 -29 -35 -37 7
-6 30 -35 104 -69 174 -7 13 -40 54 -74 91 -34 37 -59 71 -55 75 4 5 1 5 -6 0
-9 -4 -25 1 -43 14 -33 25 -49 27 -49 6 0 -8 6 -15 13 -15 20 0 112 -99 146
-158 38 -65 74 -169 68 -194 -3 -10 -1 -18 4 -18 15 0 10 -57 -6 -74 -43 -43
-186 -26 -261 31 -48 37 -103 132 -109 187 -10 92 -27 206 -37 241 -12 42 -53
114 -72 128 -6 4 0 5 14 3 14 -3 61 -10 104 -16z m1366 -117 c14 -3 34 -5 45
-4 l20 3 -20 -16 c-23 -18 -39 -21 -30 -6 3 6 1 10 -4 10 -6 0 -10 -10 -8 -22
1 -15 -3 -22 -11 -20 -8 1 -11 -2 -7 -8 3 -5 -3 -23 -15 -39 -11 -16 -36 -76
-56 -133 -20 -57 -42 -110 -49 -118 -7 -8 -15 -24 -19 -35 -10 -32 -70 -91
-116 -115 -31 -16 -62 -22 -109 -23 -82 -1 -112 8 -105 31 5 13 4 14 -4 4 -8
-12 -13 -12 -30 -1 -12 8 -24 20 -27 29 -4 8 14 56 40 107 55 112 145 208 235
250 99 47 71 61 -33 17 -82 -35 -170 -106 -219 -178 -17 -25 -28 -33 -32 -24
-3 7 -3 3 -1 -9 3 -12 1 -24 -4 -28 -6 -3 -18 -22 -27 -41 -15 -32 -18 -34
-27 -18 -18 32 -12 135 11 186 25 57 103 143 152 168 37 19 120 38 185 43 53
5 233 -3 265 -10z m-2599 -35 c0 -10 2 -10 5 -1 11 26 213 -18 347 -76 66 -28
147 -83 140 -94 -3 -5 0 -8 8 -5 13 4 44 -28 85 -87 72 -105 82 -264 21 -349
l-21 -29 -22 89 c-31 128 -82 223 -162 304 -82 82 -128 115 -138 99 -4 -6 1
-16 10 -21 9 -5 13 -14 10 -20 -4 -6 -3 -8 4 -4 29 17 155 -170 191 -285 12
-36 43 -201 38 -204 -61 -37 -129 -44 -213 -19 -62 18 -140 73 -138 97 1 9 -2
15 -6 12 -13 -8 -48 57 -65 121 -9 32 -20 113 -24 179 -6 80 -16 139 -31 177
-12 32 -18 63 -14 69 4 7 3 9 -3 6 -6 -4 -22 7 -37 23 -24 28 -25 30 -6 30 11
0 20 -6 21 -12z m1919 -222 c-16 -82 -75 -257 -155 -461 -235 -595 -275 -750
-275 -1055 0 -112 15 -325 25 -357 3 -9 28 0 78 27 40 22 157 67 258 101 479
157 704 336 893 709 73 143 79 144 46 8 -19 -84 -60 -208 -99 -306 -36 -91
-119 -202 -240 -322 -170 -170 -316 -265 -563 -370 -160 -68 -270 -125 -296
-153 -20 -22 -20 -23 -2 -132 10 -60 26 -194 36 -298 l17 -187 56 -32 c131
-74 224 -212 255 -377 28 -146 26 -177 -60 -1096 -54 -573 -53 -565 -70 -565
-12 0 -14 119 -14 725 l0 725 -49 0 -49 0 -6 -77 c-3 -43 -15 -240 -26 -438
-11 -198 -27 -486 -35 -640 -14 -252 -24 -327 -39 -284 -4 10 -46 1308 -46
1412 0 14 -9 17 -55 17 l-55 0 0 -92 c0 -71 -28 -1334 -30 -1345 0 -2 -6 -3
-14 -3 -19 0 -24 29 -31 190 -4 74 -13 225 -20 335 -8 110 -24 346 -35 525
-27 424 -20 390 -77 390 l-46 0 7 -720 c6 -624 5 -720 -7 -720 -19 0 -18 -6
-66 500 -22 228 -52 541 -67 695 -35 367 -28 472 38 617 46 97 172 221 256
249 28 9 32 15 32 46 0 133 -80 758 -106 828 -54 143 -222 369 -459 615 -131
135 -237 318 -293 501 -23 75 -38 159 -28 159 4 0 16 -21 28 -47 88 -199 324
-445 577 -603 40 -25 95 -62 122 -82 26 -21 50 -38 53 -38 2 0 7 21 11 48 11
75 52 230 90 340 68 197 137 343 295 627 85 155 127 242 185 390 26 66 50 125
54 130 12 19 13 -50 1 -109z m1425 -43 c-63 -63 -82 -132 -94 -334 -7 -113
-15 -162 -36 -224 -27 -82 -73 -157 -91 -151 -6 2 -17 0 -25 -6 -11 -8 -10 -8
5 -4 30 10 4 -16 -36 -35 -84 -42 -109 -49 -175 -49 -48 0 -79 6 -103 19 -32
18 -35 22 -33 62 3 61 53 260 64 253 5 -3 6 2 3 10 -9 24 76 163 90 148 4 -3
4 1 1 9 -4 11 14 35 59 76 37 33 66 63 66 66 0 3 -11 4 -24 3 -13 0 -22 -5
-18 -10 3 -5 -2 -6 -12 -3 -18 7 -56 -11 -56 -27 0 -5 9 -1 20 9 11 10 23 16
26 12 3 -3 -6 -13 -21 -23 -41 -26 -131 -123 -152 -161 -10 -18 -21 -33 -25
-33 -5 0 -8 -7 -8 -16 0 -8 -4 -13 -9 -10 -5 4 -7 -2 -4 -13 3 -12 -3 -24 -16
-33 -12 -8 -18 -17 -15 -21 9 -9 -6 -68 -16 -62 -5 3 -12 0 -16 -6 -5 -8 -3
-9 6 -4 10 6 12 2 7 -16 -4 -13 -12 -52 -18 -86 -6 -36 -15 -60 -21 -57 -5 3
-7 12 -4 20 3 8 0 13 -7 11 -7 -1 -11 6 -11 15 1 10 -2 16 -6 13 -14 -9 -40
81 -40 139 0 118 58 236 161 330 48 44 61 51 84 46 6 -1 7 2 3 6 -12 11 28 35
49 28 15 -5 15 -4 3 5 -13 9 -13 11 3 11 9 0 17 3 17 8 0 8 120 52 200 73 52
14 182 36 224 38 l29 1 -28 -27z m-2082 -473 c2 -149 -14 -257 -36 -243 -5 3
-7 1 -4 -5 10 -14 -25 -73 -40 -68 -6 3 -17 -3 -25 -12 -9 -11 -10 -14 0 -8 6
4 12 3 12 -3 0 -5 -13 -18 -30 -28 -16 -9 -30 -20 -30 -24 0 -7 -69 -31 -123
-43 -15 -4 -45 -1 -67 5 l-39 12 24 18 c13 11 26 19 30 19 9 0 95 60 125 87
14 13 28 23 32 23 5 0 8 7 8 16 0 10 5 14 16 10 8 -3 12 -2 9 4 -6 9 59 133
66 126 2 -2 4 10 4 27 0 40 -16 50 -25 16 -4 -14 -16 -39 -25 -55 -36 -56
-159 -173 -129 -121 4 6 4 9 0 5 -4 -3 -8 -10 -8 -15 -2 -23 -154 -107 -185
-101 -30 6 -63 85 -63 151 0 138 71 206 299 287 76 27 103 43 140 79 l46 46 8
-30 c4 -16 8 -95 10 -175z m-1035 -85 c23 -9 42 -22 42 -28 0 -6 3 -7 6 -4 11
10 45 -13 38 -25 -5 -7 -2 -8 5 -4 31 20 124 -115 136 -198 7 -47 7 -48 -14
-37 -12 7 -19 16 -16 22 4 5 -1 9 -9 9 -9 0 -28 11 -43 25 -47 42 -150 104
-203 121 -27 9 -48 19 -46 23 5 8 -182 14 -213 6 -37 -9 -7 -25 49 -25 48 0
141 -26 203 -56 26 -13 36 -23 32 -33 -5 -13 -4 -13 6 -4 15 15 36 1 122 -78
34 -31 56 -58 52 -66 -3 -8 0 -11 6 -8 6 4 16 -1 24 -11 11 -16 11 -23 -1 -47
-27 -52 -70 -84 -148 -110 -151 -51 -279 14 -446 228 -51 65 -116 119 -166
137 -19 7 -34 16 -34 20 0 5 -12 5 -27 2 -38 -9 -30 -4 60 45 54 29 84 40 100
36 17 -5 19 -4 7 4 -13 9 -13 11 0 15 169 59 203 66 330 62 71 -2 119 -9 148
-21z m1854 -45 c24 0 240 -169 232 -181 -3 -5 1 -9 8 -9 31 0 119 -119 137
-185 15 -55 13 -172 -3 -218 -23 -62 -104 -152 -122 -134 -3 3 -1 31 5 64 16
84 19 158 10 217 -14 88 -83 236 -110 236 -5 0 -2 -17 7 -37 37 -82 55 -176
50 -253 -7 -110 -17 -172 -38 -223 -8 -21 -13 -25 -19 -15 -7 10 -9 10 -9 1 0
-8 -13 -13 -30 -13 -33 0 -80 19 -80 32 0 5 -4 7 -9 4 -5 -3 -20 3 -32 14 -13
11 -19 20 -14 20 6 0 -1 6 -14 13 -14 6 -36 34 -50 61 -21 40 -25 63 -24 120
1 73 35 202 74 276 20 38 30 161 16 210 -4 14 -4 19 -1 13 3 -7 10 -13 16 -13z
m1173 -471 c78 -17 244 -68 296 -91 l27 -12 -49 -22 c-27 -13 -61 -35 -75 -49
-14 -14 -29 -23 -34 -20 -5 3 -12 0 -16 -6 -4 -8 -3 -9 4 -5 18 11 14 -8 -6
-30 -10 -11 -31 -42 -47 -69 -16 -27 -37 -57 -45 -65 -9 -9 -29 -33 -44 -53
-16 -21 -35 -36 -42 -33 -7 3 -11 0 -9 -7 7 -17 -56 -55 -120 -72 -99 -25
-205 5 -270 77 -31 34 -34 42 -23 56 44 55 58 71 102 119 50 55 70 66 60 36
-5 -14 -4 -15 4 -4 5 7 16 10 23 7 8 -4 6 -1 -3 7 -17 13 -17 15 0 29 46 39
170 92 237 102 22 3 41 5 43 6 1 0 2 4 2 9 0 5 -22 11 -49 13 -27 1 -47 0 -45
-3 2 -4 -13 -9 -34 -12 -75 -12 -144 -42 -213 -93 -27 -20 -53 -33 -59 -29 -6
4 -7 -1 -3 -11 5 -14 3 -16 -11 -11 -9 4 -15 3 -12 -1 3 -5 -12 -26 -33 -46
-28 -27 -40 -34 -45 -24 -3 7 -3 3 0 -9 3 -13 1 -23 -5 -23 -6 0 -11 21 -11
50 0 84 61 183 150 245 95 66 199 79 355 44z m-2730 -75 c12 -5 -1 -17 -51
-46 -58 -34 -69 -37 -76 -24 -5 9 -14 16 -19 16 -6 0 -4 -7 5 -15 14 -14 10
-21 -42 -73 -62 -61 -122 -166 -105 -183 6 -6 16 4 27 29 24 54 124 152 135
133 6 -9 11 -10 15 -2 4 6 2 11 -4 11 -23 0 2 19 65 49 35 17 78 34 94 37 26
6 33 2 50 -27 23 -37 29 -128 12 -172 -14 -35 -69 -95 -112 -123 -21 -13 -79
-35 -131 -50 -106 -30 -151 -51 -190 -87 l-28 -26 0 124 c0 125 22 277 40 283
5 2 10 9 10 16 0 29 95 110 149 126 32 10 134 12 156 4z m442 -529 c29 -5 56
-19 84 -44 l42 -37 -44 -63 c-91 -129 -101 -141 -111 -141 -6 0 -1 12 13 28
l24 27 -27 -24 c-15 -13 -24 -29 -22 -36 6 -15 -134 -101 -188 -116 -50 -13
-50 -34 0 -26 81 14 252 100 252 129 0 6 9 8 20 5 11 -3 17 -1 14 4 -3 6 12
31 33 56 21 26 45 57 54 70 l16 24 7 -23 c9 -37 7 -100 -4 -93 -5 3 -7 0 -4
-8 3 -8 -2 -32 -11 -53 -13 -31 -18 -36 -26 -24 -8 12 -9 10 -4 -6 6 -24 -17
-54 -42 -54 -9 0 -13 -3 -10 -6 11 -12 -54 -60 -107 -80 -65 -24 -206 -24
-326 1 -47 10 -92 18 -100 19 -8 1 -32 6 -54 10 l-39 9 30 12 c45 19 106 96
159 200 61 120 112 186 139 179 14 -4 16 -3 7 4 -11 7 -11 11 0 19 25 20 63
37 98 44 34 7 43 6 127 -6z m1693 -168 c90 -40 278 -196 265 -218 -4 -5 0 -6
7 -4 12 5 62 -49 63 -67 0 -3 4 -10 9 -15 5 -5 6 -3 2 5 -11 19 -1 14 20 -9
l19 -21 -32 6 c-39 9 -136 -14 -203 -48 -27 -14 -52 -21 -56 -18 -4 4 -4 2 0
-5 10 -18 -145 -89 -223 -103 -49 -9 -76 -8 -115 1 -63 15 -97 36 -89 55 3 8
0 14 -7 14 -6 0 -8 -4 -5 -10 16 -26 -17 -6 -49 31 -39 43 -55 75 -63 125 -4
28 -1 32 44 51 188 82 310 101 436 68 66 -17 77 -18 77 -7 0 11 -66 39 -125
52 -76 18 -211 16 -278 -4 -32 -9 -62 -14 -67 -11 -6 3 -10 1 -10 -6 0 -6 -8
-9 -20 -6 -11 3 -18 2 -15 -3 5 -9 -36 -22 -44 -14 -3 3 0 9 8 13 7 5 12 11
12 15 -3 20 3 30 37 65 35 36 102 79 102 65 0 -4 6 -1 14 5 47 39 200 38 286
-2z m-2020 -3163 c159 -44 239 -188 227 -409 -14 -250 -136 -367 -382 -368
-55 0 -133 5 -172 12 l-73 13 0 373 0 373 68 11 c37 6 83 12 102 15 55 6 170
-4 230 -20z m2666 -5 c139 -52 205 -174 205 -380 0 -106 -11 -159 -46 -230
-61 -120 -214 -183 -386 -159 -135 19 -215 75 -265 182 -28 61 -29 69 -29 213
0 141 2 153 26 205 35 76 80 124 143 155 94 46 248 52 352 14z m689 9 c56 -14
117 -54 143 -95 68 -102 36 -265 -64 -328 -24 -15 -44 -30 -44 -32 0 -1 38
-62 85 -133 120 -184 114 -167 52 -180 -32 -6 -69 -7 -92 -2 -38 7 -44 15
-115 130 -93 152 -102 162 -140 162 l-29 0 -3 -142 -3 -142 -39 -8 c-22 -5
-58 -5 -80 0 l-41 8 -3 371 -2 371 34 12 c86 28 245 32 341 8z m-5307 0 c7 -7
12 -29 12 -49 0 -71 3 -69 -156 -69 l-144 0 0 -90 0 -90 115 0 114 0 7 -34 c3
-19 2 -48 -3 -63 l-10 -28 -109 -1 -109 -1 -5 -169 -5 -168 -43 -9 c-25 -5
-60 -5 -80 0 l-37 9 -3 387 -2 387 223 0 c160 0 226 -3 235 -12z m265 -5 c4
-2 7 -173 7 -379 0 -419 6 -387 -74 -388 -22 0 -53 3 -68 7 l-28 7 0 375 0
375 28 6 c15 3 32 7 37 9 11 4 86 -5 98 -12z m616 3 c7 -8 11 -36 9 -63 l-3
-48 -148 -3 -148 -3 3 -87 3 -87 110 -3 c119 -3 125 -6 125 -60 0 -69 -9 -74
-128 -71 l-107 3 -3 -112 -3 -111 158 -3 158 -3 8 -35 c6 -22 5 -45 -2 -62
l-11 -28 -240 0 -240 0 0 395 0 395 224 0 c181 0 226 -3 235 -14z m261 5 l25
-7 5 -319 5 -320 140 -3 c96 -2 142 -6 147 -15 12 -19 9 -81 -5 -100 -11 -16
-34 -17 -232 -15 l-220 3 0 385 0 385 30 6 c39 9 74 9 105 0z m2891 -18 c7
-18 8 -41 2 -63 l-8 -35 -145 -5 -145 -5 0 -85 0 -85 110 -3 c60 -1 113 -6
118 -11 13 -13 11 -89 -3 -105 -9 -11 -37 -15 -118 -14 l-107 0 -5 -168 -5
-168 -42 -9 c-26 -5 -58 -4 -83 3 l-40 11 0 378 c0 208 3 381 7 384 3 4 107 7
230 7 l223 0 11 -27z m1732 8 c5 -5 8 -84 7 -175 0 -91 3 -166 8 -166 4 0 62
68 128 152 150 192 152 194 201 203 42 7 123 -9 123 -24 0 -5 -39 -58 -86
-117 -174 -221 -175 -224 -170 -242 4 -10 14 -27 24 -38 28 -30 262 -332 262
-337 0 -12 -108 -27 -147 -21 -50 7 -57 15 -218 222 -60 77 -113 141 -116 142
-3 0 -7 -77 -8 -172 -1 -94 -4 -175 -6 -178 -9 -14 -87 -20 -126 -10 l-39 11
0 374 0 374 33 10 c35 11 116 6 130 -8z m-2957 -76 c4 -8 3 -26 0 -40 -6 -23
-11 -25 -69 -25 l-62 0 3 -167 c4 -216 4 -215 -56 -211 l-47 3 -3 187 -2 187
-63 3 -62 3 -3 38 -3 37 181 0 c151 0 182 -2 186 -15z m340 -4 c81 -37 108
-100 103 -238 -4 -80 -7 -93 -33 -127 -38 -50 -77 -73 -140 -80 -79 -10 -151
9 -195 53 -44 44 -61 96 -61 189 0 94 35 165 99 199 57 30 166 32 227 4z m67
-563 c60 -28 67 -38 42 -58 -11 -9 -26 -7 -72 11 -91 35 -218 30 -353 -12 -90
-28 -120 -33 -210 -33 -82 -1 -112 3 -137 17 -36 19 -40 29 -19 46 10 8 29 7
76 -5 75 -19 139 -13 250 22 125 39 151 43 260 41 90 -2 113 -7 163 -29z"/>
<path d="M5181 9134 c0 -11 3 -14 6 -6 3 7 2 16 -1 19 -3 4 -6 -2 -5 -13z"/>
<path d="M5310 9080 c0 -5 5 -10 11 -10 5 0 7 5 4 10 -3 6 -8 10 -11 10 -2 0
-4 -4 -4 -10z"/>
<path d="M5370 9026 c0 -11 30 -39 36 -34 2 3 -5 13 -16 23 -11 10 -20 15 -20
11z"/>
<path d="M5465 8900 c3 -5 8 -10 11 -10 2 0 4 5 4 10 0 6 -5 10 -11 10 -5 0
-7 -4 -4 -10z"/>
<path d="M5330 8831 c0 -6 4 -13 10 -16 6 -3 7 1 4 9 -7 18 -14 21 -14 7z"/>
<path d="M5361 8654 c0 -11 3 -14 6 -6 3 7 2 16 -1 19 -3 4 -6 -2 -5 -13z"/>
<path d="M5268 8273 c7 -3 16 -2 19 1 4 3 -2 6 -13 5 -11 0 -14 -3 -6 -6z"/>
<path d="M4542 8175 c0 -16 2 -22 5 -12 2 9 2 23 0 30 -3 6 -5 -1 -5 -18z"/>
<path d="M4905 8120 c3 -5 8 -10 11 -10 2 0 4 5 4 10 0 6 -5 10 -11 10 -5 0
-7 -4 -4 -10z"/>
<path d="M5002 7985 c0 -16 2 -22 5 -12 2 9 2 23 0 30 -3 6 -5 -1 -5 -18z"/>
<path d="M4971 7984 c0 -11 3 -14 6 -6 3 7 2 16 -1 19 -3 4 -6 -2 -5 -13z"/>
<path d="M5021 7804 c0 -11 3 -14 6 -6 3 7 2 16 -1 19 -3 4 -6 -2 -5 -13z"/>
<path d="M4886 7683 c-6 -14 -5 -15 5 -6 7 7 10 15 7 18 -3 3 -9 -2 -12 -12z"/>
<path d="M5450 7960 c0 -5 5 -10 10 -10 6 0 10 5 10 10 0 6 -4 10 -10 10 -5 0
-10 -4 -10 -10z"/>
<path d="M5489 7873 c-13 -16 -12 -17 4 -4 9 7 17 15 17 17 0 8 -8 3 -21 -13z"/>
<path d="M5700 7699 c0 -5 5 -7 10 -4 6 3 10 8 10 11 0 2 -4 4 -10 4 -5 0 -10
-5 -10 -11z"/>
<path d="M3663 7953 c-17 -6 -17 -20 0 -26 8 -3 13 3 13 14 0 11 0 19 -1 18 0
0 -6 -3 -12 -6z"/>
<path d="M3760 7939 c0 -5 5 -7 10 -4 6 3 10 8 10 11 0 2 -4 4 -10 4 -5 0 -10
-5 -10 -11z"/>
<path d="M3720 7886 c0 -2 7 -9 15 -16 13 -11 14 -10 9 4 -5 14 -24 23 -24 12z"/>
<path d="M3815 7750 c3 -5 8 -10 11 -10 2 0 4 5 4 10 0 6 -5 10 -11 10 -5 0
-7 -4 -4 -10z"/>
<path d="M3871 7644 c0 -11 3 -14 6 -6 3 7 2 16 -1 19 -3 4 -6 -2 -5 -13z"/>
<path d="M3942 7630 c0 -14 2 -19 5 -12 2 6 2 18 0 25 -3 6 -5 1 -5 -13z"/>
<path d="M6438 7803 c7 -3 16 -2 19 1 4 3 -2 6 -13 5 -11 0 -14 -3 -6 -6z"/>
<path d="M6597 7771 c-4 -17 -3 -21 5 -13 5 5 8 16 6 23 -3 8 -7 3 -11 -10z"/>
<path d="M6522 7305 c0 -16 2 -22 5 -12 2 9 2 23 0 30 -3 6 -5 -1 -5 -18z"/>
<path d="M4499 7473 c-13 -17 -13 -17 6 -3 11 8 22 16 24 17 2 2 0 3 -6 3 -6
0 -17 -8 -24 -17z"/>
<path d="M4436 7245 c-3 -8 -1 -15 4 -15 6 0 10 7 10 15 0 8 -2 15 -4 15 -2 0
-6 -7 -10 -15z"/>
<path d="M4536 7245 c-3 -9 -6 -22 -5 -28 0 -7 5 -1 10 12 5 13 8 26 5 28 -2
2 -6 -3 -10 -12z"/>
<path d="M4413 7198 c-15 -20 -25 -38 -20 -38 3 0 12 11 21 25 17 26 16 35 -1
13z"/>
<path d="M3158 7243 c7 -3 16 -2 19 1 4 3 -2 6 -13 5 -11 0 -14 -3 -6 -6z"/>
<path d="M3158 7213 c7 -3 16 -2 19 1 4 3 -2 6 -13 5 -11 0 -14 -3 -6 -6z"/>
<path d="M3298 7143 c7 -3 16 -2 19 1 4 3 -2 6 -13 5 -11 0 -14 -3 -6 -6z"/>
<path d="M3666 7115 c-11 -8 -15 -15 -9 -15 6 0 16 7 23 15 16 19 11 19 -14 0z"/>
<path d="M3526 7052 c-2 -4 4 -8 14 -8 10 0 16 4 14 8 -3 4 -9 8 -14 8 -5 0
-11 -4 -14 -8z"/>
<path d="M5536 6964 c-9 -24 -7 -31 4 -14 9 13 11 13 20 0 5 -8 10 -10 10 -4
0 6 -6 17 -14 23 -11 9 -15 8 -20 -5z"/>
<path d="M5320 6651 c0 -6 4 -13 10 -16 6 -3 7 1 4 9 -7 18 -14 21 -14 7z"/>
<path d="M5566 6545 c-3 -9 -6 -22 -5 -28 0 -7 5 -1 10 12 5 13 8 26 5 28 -2
2 -6 -3 -10 -12z"/>
<path d="M6598 6733 c7 -3 16 -2 19 1 4 3 -2 6 -13 5 -11 0 -14 -3 -6 -6z"/>
<path d="M6568 6703 c7 -3 16 -2 19 1 4 3 -2 6 -13 5 -11 0 -14 -3 -6 -6z"/>
<path d="M6262 6626 c7 -8 17 -12 22 -9 4 3 2 9 -5 14 -22 13 -31 11 -17 -5z"/>
<path d="M6115 6579 c-4 -6 -5 -12 -2 -15 2 -3 7 2 10 11 7 17 1 20 -8 4z"/>
<path d="M6110 6490 c-6 -11 -8 -20 -6 -20 3 0 10 9 16 20 6 11 8 20 6 20 -3
0 -10 -9 -16 -20z"/>
<path d="M6661 6484 c0 -11 3 -14 6 -6 3 7 2 16 -1 19 -3 4 -6 -2 -5 -13z"/>
<path d="M6645 6449 c-4 -6 -5 -12 -2 -15 2 -3 7 2 10 11 7 17 1 20 -8 4z"/>
<path d="M6151 6313 c7 -12 15 -20 18 -17 3 2 -3 12 -13 22 -17 16 -18 16 -5
-5z"/>
<path d="M6480 6316 c0 -3 9 -10 20 -16 11 -6 20 -8 20 -6 0 3 -9 10 -20 16
-11 6 -20 8 -20 6z"/>
<path d="M6198 6273 c7 -3 16 -2 19 1 4 3 -2 6 -13 5 -11 0 -14 -3 -6 -6z"/>
<path d="M3579 6583 c-13 -16 -12 -17 4 -4 9 7 17 15 17 17 0 8 -8 3 -21 -13z"/>
<path d="M3665 6469 c-4 -6 -5 -12 -2 -15 2 -3 7 2 10 11 7 17 1 20 -8 4z"/>
<path d="M3931 6434 c0 -11 3 -14 6 -6 3 7 2 16 -1 19 -3 4 -6 -2 -5 -13z"/>
<path d="M4376 6063 c-6 -14 -5 -15 5 -6 7 7 10 15 7 18 -3 3 -9 -2 -12 -12z"/>
<path d="M4406 5838 c3 -5 10 -6 15 -3 13 9 11 12 -6 12 -8 0 -12 -4 -9 -9z"/>
<path d="M4288 5743 c7 -3 16 -2 19 1 4 3 -2 6 -13 5 -11 0 -14 -3 -6 -6z"/>
<path d="M6090 5896 c0 -2 8 -10 18 -17 15 -13 16 -12 3 4 -13 16 -21 21 -21
13z"/>
<path d="M5968 5803 c7 -3 16 -2 19 1 4 3 -2 6 -13 5 -11 0 -14 -3 -6 -6z"/>
<path d="M5818 5783 c7 -3 16 -2 19 1 4 3 -2 6 -13 5 -11 0 -14 -3 -6 -6z"/>
<path d="M5978 5553 c7 -3 16 -2 19 1 4 3 -2 6 -13 5 -11 0 -14 -3 -6 -6z"/>
<path d="M3753 2710 l-23 -9 0 -260 0 -259 23 -6 c110 -29 216 33 249 148 17
61 15 192 -6 252 -36 109 -150 171 -243 134z"/>
<path d="M6400 2704 c-59 -25 -89 -63 -112 -137 -25 -85 -21 -206 10 -277 37
-87 115 -131 200 -115 71 13 118 58 148 142 18 52 17 188 -2 252 -35 119 -143
179 -244 135z"/>
<path d="M7128 2713 c-16 -4 -18 -18 -18 -119 l0 -114 71 0 c39 0 79 5 90 10
45 24 63 114 34 169 -23 45 -110 72 -177 54z"/>
<path d="M5000 2677 c-33 -16 -70 -91 -70 -142 0 -126 80 -197 169 -150 89 45
80 263 -12 295 -39 13 -56 13 -87 -3z"/>
</g>
</svg>
